<svg xmlns="http://www.w3.org/2000/svg" version="1.1" xmlns:xlink="http://www.w3.org/1999/xlink" xmlns:svgjs="http://svgjs.dev/svgjs" width="100%" height="100%" viewBox="0 0 1000 600"><rect width="1000" height="600" x="0" y="0" fill="#f7f7f7"/><g><circle r="166.66666666666666" cx="370.9645640055338" cy="393.1867905716333" fill="#FFFFFFz" transform="matrix(0.6118516005835718,0,0,0.6118516005835718,0,59.428023222911264)"/><path d="M308.36168875008553 319.65286898542377L308.36168875008553 319.65286898542377Q315.9748575142034 319.65286898542377 332.5386436091085 318.90698420785816Q349.1024297040136 318.18681959503624 362.63123635916907 318.18681959503624L362.63123635916907 318.18681959503624Q390.76909658871284 318.18681959503624 402.806133688737 329.37509125852023Q414.84317078876126 340.58908308674796 414.84317078876126 360.5736510925574L414.84317078876126 360.5736510925574Q414.84317078876126 372.6106881925816 406.5098374118214 382.2557499714472Q398.17650403488153 391.87509158556907 384.67341754446977 396.68476239263003L384.67341754446977 396.68476239263003Q392.620948450255 410.2135690477854 399.5653929310382 422.0705649946042Q406.5098374118214 433.9275609414229 409.67341767528933 439.66315767925494Q412.8112777740136 445.398754417087 415.4090144131213 449.9255034119679Q418.00675105222916 454.47797257159243 419.2155987951803 456.1497832799291Q420.39872637338783 457.7958738235222 421.53041362210803 458.92756107224244L421.53041362210803 458.92756107224244L434.85345895931437 460.7794129337846Q435.59934373688 463.5571907260979 434.85345895931437 467.62097675559323L434.85345895931437 467.62097675559323L403.37197731309715 467.62097675559323L375.41415823675885 416.87509171638857Q369.8586026521323 406.32982417149555 364.8431705271222 400.59422743366355L364.8431705271222 400.59422743366355L362.27115405275805 400.59422743366355Q352.80613342709796 400.59422743366355 343.1867918129761 399.4625401849433L343.1867918129761 399.4625401849433L343.1867918129761 459.4676845318589L360.0334997200613 461.31953639340105Q360.7793844976269 464.0973141857143 360.0334997200613 468.18682037995336L360.0334997200613 468.18682037995336Q348.3822650911917 467.62097675559323 333.7474913520597 467.62097675559323L333.7474913520597 467.62097675559323Q322.816421336012 467.62097675559323 307.2557216661089 467.98105906200425L307.2557216661089 467.98105906200425Q306.14975458213235 464.66315781007444 307.2557216661089 461.31953639340105L307.2557216661089 461.31953639340105L322.63638018280653 459.1076022254479Q323.38226496037214 452.06027708569013 323.38226496037214 437.4255033465581L323.38226496037214 437.4255033465581L323.38226496037214 328.37200483351825L308.36168875008553 326.520152971976Q307.64152413726356 323.74237517966276 308.36168875008553 319.65286898542377ZM343.1867918129761 350.3884658540754L343.1867918129761 350.3884658540754L343.1867918129761 391.87509158556907Q348.92238855080814 392.6209763631347 359.85345856685575 392.6209763631347L359.85345856685575 392.6209763631347Q369.29275902777215 392.6209763631347 376.0571623553499 389.56027675864135Q382.8215656829276 386.49957715414797 386.13946693485735 381.406984534907Q389.4830883515308 376.31439191566596 390.97485790666195 370.96459764898856Q392.44090729704953 365.58908321756746 392.44090729704953 359.6477251617863L392.44090729704953 359.6477251617863Q392.44090729704953 343.72694318547224 384.4933763912643 334.8534863489159Q376.5201253207355 325.95430934761595 358.0016067053136 325.95430934761595L358.0016067053136 325.95430934761595Q351.16004288350496 325.95430934761595 344.2927588969527 327.24031758479805L344.2927588969527 327.24031758479805Q343.1867918129761 337.81130529443465 343.1867918129761 350.3884658540754Z " fill="#fddc5c" transform="matrix(0.6118516005835718,0,0,0.6118516005835718,0,59.428023222911264)"/><path d="M622.527071365522 321.1422461489096L622.527071365522 321.1422461489096Q629.6976142132232 321.1422461489096 645.2983898683567 320.4397267482902Q660.8991655234904 319.76143215458876 673.6414139623107 319.76143215458876L673.6414139623107 319.76143215458876Q700.1433527305035 319.76143215458876 711.4805623680851 330.29922316387933Q722.8177720056666 340.86123898008776 722.8177720056666 359.68391395530335L722.8177720056666 359.68391395530335Q722.8177720056666 371.0211235928849 714.968934564264 380.10542618710093Q707.1200971228614 389.165503974399 694.402073490959 393.69554286804805L694.402073490959 393.69554286804805Q701.887538828593 406.43779130686835 708.4282366964285 417.6054272960246Q714.968934564264 428.77306328518074 717.9485858151669 434.17519522787455Q720.9040122591518 439.5773271705683 723.3507177578607 443.8408931881204Q725.7974232565695 448.1286840125903 726.9359891817113 449.7032964622544Q728.0503302999351 451.2536841050006 729.1162218043231 452.31957560938866L729.1162218043231 452.31957560938866L741.6646717878001 454.06376170747814Q742.3671911884195 456.6800408546123 741.6646717878001 460.507560347642L741.6646717878001 460.507560347642L712.0135081202791 460.507560347642L685.6811430005116 412.71201629860684Q680.4485847062432 402.77984546226406 675.7247473572509 397.37771351957025L675.7247473572509 397.37771351957025L673.3022666654599 397.37771351957025Q664.3875377196694 397.37771351957025 655.3274599323713 396.31182201518226L655.3274599323713 396.31182201518226L655.3274599323713 452.82829655466475L671.1947084636018 454.5724826527542Q671.8972278642212 457.1887617998884 671.1947084636018 461.040506099836L671.1947084636018 461.040506099836Q660.2208709297889 460.507560347642 646.4369557934986 460.507560347642L646.4369557934986 460.507560347642Q636.141412853387 460.507560347642 621.4854046680518 460.8467076444927L621.4854046680518 460.8467076444927Q620.4437379705818 457.7217075520824 621.4854046680518 454.5724826527542L621.4854046680518 454.5724826527542L635.9718392049617 452.489149257814Q636.6743586055811 445.85155216230686 636.6743586055811 432.0676370260164L636.6743586055811 432.0676370260164L636.6743586055811 329.3544556940808L622.527071365522 327.6102695959914Q621.8487767718206 324.9939904488572 622.527071365522 321.1422461489096ZM655.3274599323713 350.09089041581126L655.3274599323713 350.09089041581126L655.3274599323713 389.165503974399Q660.729591875065 389.86802337501837 671.0251348151764 389.86802337501837L671.0251348151764 389.86802337501837Q679.9156389540492 389.86802337501837 686.2867631734593 386.98527135178716Q692.6578873928695 384.10251932855596 695.7828874852798 379.3060075588099Q698.932112384608 374.50949578906386 700.3371511858468 369.4707359501387Q701.7179651801675 364.40775130429563 701.7179651801675 358.8118209062586L701.7179651801675 358.8118209062586Q701.7179651801675 343.8166654240727 694.2324998425336 335.459107037394Q686.7228096979818 327.07732384379733 669.2809487170871 327.07732384379733L669.2809487170871 327.07732384379733Q662.8371500769231 327.07732384379733 656.3691266298413 328.2885641896928L656.3691266298413 328.2885641896928Q655.3274599323713 338.24495983295355 655.3274599323713 350.09089041581126ZM775.3371534036941 395.6335274214808L775.3371534036941 395.6335274214808L775.3371534036941 451.61705620876927L789.4602158368352 454.2333353559035Q789.6297894852606 455.1054284049482 789.7266887129323 455.8079478055676Q789.7993631336859 456.4862423992691 789.7993631336859 457.35833544831377L789.7993631336859 457.35833544831377Q789.7993631336859 458.23042849735856 789.7266887129323 459.1994207740749Q789.6297894852606 460.16841305079123 789.4602158368352 461.21007974826136L789.4602158368352 461.21007974826136Q778.4621534961044 460.67713399606737 766.9553702100975 460.67713399606737L766.9553702100975 460.67713399606737Q762.9340522617246 460.67713399606737 757.2654474429337 460.77403322373897Q751.5968426241429 460.8467076444927 744.2809509349344 461.040506099836L744.2809509349344 461.040506099836Q743.7480051827403 459.4658936501719 743.7480051827403 457.7217075520824L743.7480051827403 457.7217075520824Q743.7480051827403 456.1470951024183 744.2809509349344 454.2333353559035L744.2809509349344 454.2333353559035L758.0648660712247 452.31957560938866Q758.4040133680754 447.42616461197093 758.5735870165008 441.9271334416055Q758.7673854718441 436.4281022712401 758.7673854718441 430.1538772795016L758.7673854718441 430.1538772795016L758.7673854718441 393.01724827434657Q758.7673854718441 381.48624018142175 758.2344397196501 375.9145345903026L758.2344397196501 375.9145345903026L744.4505245833597 374.1703484922131Q744.111377286509 373.2982554431684 744.111377286509 371.2149220482282L744.111377286509 371.2149220482282Q744.111377286509 370.34282899918344 744.111377286509 369.4707359501387Q744.111377286509 368.59864290109397 744.4505245833597 367.5327513967059L744.4505245833597 367.5327513967059Q756.3206799731353 366.8544568030045 774.4650603546494 363.87480555210163L774.4650603546494 363.87480555210163Q776.0154479973955 365.6189916501911 776.2092464527389 367.3631777482806L776.2092464527389 367.3631777482806Q775.3371534036941 372.25658874569825 775.3371534036941 395.6335274214808ZM749.8526565260535 333.3515488355359L749.8526565260535 333.3515488355359Q749.5135092292027 332.47945578649114 749.5135092292027 331.53468831669267Q749.5135092292027 330.5656960399763 749.5135092292027 329.6936029909316L749.5135092292027 329.6936029909316Q749.5135092292027 324.9939904488572 753.4379279499041 322.11123842562597Q757.3623466706053 319.22848640239476 763.1278507170678 319.22848640239476L763.1278507170678 319.22848640239476Q768.5299826597616 319.22848640239476 771.9214556282689 322.45038572247665Q775.3371534036941 325.67228504255866 775.3371534036941 331.26821544059567L775.3371534036941 331.26821544059567Q775.3371534036941 335.79825433424475 771.4127346829928 338.5841071298043Q767.4883159622915 341.3699599253639 761.3836646189783 341.3699599253639L761.3836646189783 341.3699599253639Q757.19277302218 341.3699599253639 753.9708737020981 339.28662653042363Q750.7247495750981 337.2032931354835 749.8526565260535 333.3515488355359ZM884.8575054795623 349.92131676738586L884.8575054795623 435.7498076775386Q884.8575054795623 447.42616461197093 885.3904512317562 452.12577715404535L885.3904512317562 452.12577715404535L899.1743663680467 453.8699632521348Q899.6830873133227 456.6800408546123 899.1743663680467 460.507560347642L899.1743663680467 460.507560347642Q886.4321179292264 461.040506099836 872.6482027929359 462.95426584635084L872.6482027929359 462.95426584635084Q871.4369624470404 461.7188006935375 870.9040166948464 459.63546729859723L870.9040166948464 459.63546729859723L870.0319236458017 448.46783130944107Q863.9272723024885 455.6141493502243 854.8671945151905 459.9019401746943Q845.7828919209745 464.1655061922463 835.8507210846316 464.1655061922463L835.8507210846316 464.1655061922463Q820.6859919540204 464.1655061922463 810.7295963107597 451.5201569810976Q800.7974254744169 438.874807769949 800.7974254744169 417.7750009444499L800.7974254744169 417.7750009444499Q800.7974254744169 393.3563955711973 813.7819219824162 378.62771296510846Q826.7906432973335 363.87480555210163 844.9107988719297 363.87480555210163L844.9107988719297 363.87480555210163Q859.2276597604142 363.87480555210163 868.2877375477123 370.6819762960342L868.2877375477123 370.6819762960342L868.2877375477123 347.30503762025165Q868.2877375477123 335.79825433424475 867.7790166024362 330.2265487431256L867.7790166024362 330.2265487431256L853.9951014661457 328.4823626450361Q853.2925820655263 325.8660834979019 853.9951014661457 321.8447655495289L853.9951014661457 321.8447655495289Q866.0348305043467 320.97267250048424 883.9854124305174 318.18681970492463L883.9854124305174 318.18681970492463Q885.5600248801816 319.9310058030141 885.729598528607 321.6751919011036L885.729598528607 321.6751919011036Q884.8575054795623 326.20523079475265 884.8575054795623 349.92131676738586L884.8575054795623 349.92131676738586ZM843.5299848776089 373.2982554431684L843.5299848776089 373.2982554431684Q832.1927752400273 373.2982554431684 825.3856044960947 385.2410852536977Q818.5784337521623 397.183915064227 818.5784337521623 418.3079466966439L818.5784337521623 418.3079466966439Q818.5784337521623 435.55600922219537 824.9495579715724 444.6403118164114Q831.3206821909826 453.7003896037095 841.7857987795195 453.7003896037095L841.7857987795195 453.7003896037095Q848.0600237712579 453.7003896037095 855.5697139158098 449.77597088300814Q863.0551792534438 445.85155216230686 868.2877375477123 438.874807769949L868.2877375477123 438.874807769949L868.2877375477123 383.0608526310858Q859.7363807056902 373.2982554431684 843.5299848776089 373.2982554431684ZM982.5319269725727 411.331202304286L982.5319269725727 411.331202304286L927.7596385311797 411.331202304286Q926.2092508884335 455.8079478055676 954.4553757547156 455.8079478055676L954.4553757547156 455.8079478055676Q966.4951047929167 455.8079478055676 979.0435547763938 445.14903276168747L979.0435547763938 445.14903276168747Q981.659833923528 446.7236452113516 983.0648727247666 450.5753895112992L983.0648727247666 450.5753895112992Q971.0251436865657 463.99593254382097 952.5416160082009 463.99593254382097L952.5416160082009 463.99593254382097Q909.9786302534342 463.99593254382097 909.9786302534342 413.94748145142023L909.9786302534342 413.94748145142023Q909.9786302534342 390.2071706718691 922.5270802369113 377.0531005154443Q935.0997550273063 363.87480555210163 951.8390966075815 363.87480555210163L951.8390966075815 363.87480555210163Q970.153050637521 363.87480555210163 978.1714617273491 376.61705399092193Q986.1898728171769 389.3350776228244 986.1898728171769 409.75658985462195L986.1898728171769 409.75658985462195Q984.4456867190875 411.13740384894277 982.5319269725727 411.331202304286ZM951.4999493107308 370.8515499444595L951.4999493107308 370.8515499444595Q942.4156467165147 370.8515499444595 936.0445224971046 380.2749998355263Q929.6976230846125 389.69844972659297 928.2925842833737 404.35445791192814L928.2925842833737 404.35445791192814L949.9253368610667 404.35445791192814Q962.8371589483123 404.35445791192814 968.4088645394315 402.77984546226406L968.4088645394315 402.77984546226406Q968.4088645394315 388.46298457377964 964.0483992942078 379.66937966257854Q959.6879340489842 370.8515499444595 951.4999493107308 370.8515499444595ZM1117.5367759260814 435.0472882769193L1117.5367759260814 435.0472882769193L1117.8759232229322 435.0472882769193Q1119.6201093210216 427.90097023613606 1126.257706416529 406.0986440100176L1126.257706416529 406.0986440100176L1150.506738141356 329.3544556940808L1136.383675708215 327.6102695959914L1136.383675708215 321.1422461489096Q1145.976699247707 321.8447655495289 1154.8672033865796 321.8447655495289L1154.8672033865796 321.8447655495289Q1162.5464671795569 321.8447655495289 1173.6898783617953 321.3118197973349L1173.6898783617953 321.3118197973349L1173.6898783617953 327.6102695959914L1162.1830950757883 329.6936029909316Q1159.3972422802287 333.8844945877299 1155.2063506834304 345.22170422531144L1155.2063506834304 345.22170422531144L1115.6230161795665 465.74011864191044L1111.0929772859176 465.74011864191044L1077.590069318449 368.0656971489L1040.96216125857 465.9096922903358L1036.2625487164955 465.74011864191044L991.0832838145947 329.3544556940808L976.9602213814536 327.6102695959914Q976.2577019808342 324.9939904488572 976.9602213814536 321.1422461489096L976.9602213814536 321.1422461489096Q986.5532449209455 321.8447655495289 1001.8875476999823 321.8447655495289L1001.8875476999823 321.8447655495289Q1016.0348349400414 321.8447655495289 1027.1782461222797 321.3118197973349L1027.1782461222797 321.3118197973349Q1028.2441376266675 324.4610446966632 1027.1782461222797 327.6102695959914L1027.1782461222797 327.6102695959914L1012.7160363922877 329.6936029909316L1035.7296029643016 406.97073705906234Q1040.0900682095253 422.6684119418676 1043.2392931088534 436.4281022712401L1043.2392931088534 436.4281022712401L1043.5784404057042 436.4281022712401Q1047.0668126018832 424.9213189852332 1053.7044096973905 406.97073705906234L1053.7044096973905 406.97073705906234L1072.8904567763743 353.9426347157588L1064.5086735827779 329.3544556940808L1050.3856111496366 327.6102695959914Q1049.6830917490174 324.9939904488572 1050.3856111496366 321.1422461489096L1050.3856111496366 321.1422461489096Q1059.9786346891287 321.8447655495289 1074.6346428744641 321.8447655495289L1074.6346428744641 321.8447655495289Q1087.8856122585603 321.8447655495289 1099.2228218961418 321.3118197973349L1099.2228218961418 321.3118197973349Q1100.264488593612 324.4610446966632 1099.2228218961418 327.6102695959914L1099.2228218961418 327.6102695959914L1084.7363873592321 329.6936029909316L1109.5183648362536 405.5656982578236Q1115.259644075798 424.41259803995706 1117.5367759260814 435.0472882769193ZM1181.0299948579218 437.30019532028484L1181.0299948579218 437.30019532028484Q1181.0299948579218 446.38449791450086 1184.3487934056752 450.1393429867768Q1187.643367146511 453.8699632521348 1194.8139099942123 453.8699632521348L1194.8139099942123 453.8699632521348Q1200.0464682884806 453.8699632521348 1206.3933677009727 450.64806393205293Q1212.764491920383 447.42616461197093 1218.166623863077 441.3215132686578L1218.166623863077 441.3215132686578L1218.166623863077 414.11705509984563Q1200.216041936906 415.1587217973157 1190.623018397414 420.4881793192558Q1181.0299948579218 425.7934120342779 1181.0299948579218 437.30019532028484ZM1218.166623863077 407.8428301081071L1218.166623863077 407.8428301081071L1218.166623863077 398.92810116231647Q1218.166623863077 384.10251932855596 1214.7751508945694 377.39224781229507Q1211.383677926062 370.6819762960342 1203.5348404846595 370.6819762960342L1203.5348404846595 370.6819762960342Q1195.4922045879136 370.6819762960342 1190.623018397414 375.81763536263094Q1185.7296073999962 380.97751923614567 1183.9854213019066 393.3563955711973L1183.9854213019066 393.3563955711973Q1178.4137157107875 394.5676359170928 1175.7974365636533 394.5676359170928L1175.7974365636533 394.5676359170928Q1168.9902658197207 394.5676359170928 1167.7790254738254 389.69844972659297L1167.7790254738254 389.69844972659297Q1167.7790254738254 377.8282943368174 1178.050343607019 370.8515499444595Q1188.3458865471302 363.87480555210163 1203.7044141330848 363.87480555210163L1203.7044141330848 363.87480555210163Q1220.6133293617856 363.87480555210163 1227.6869729818152 370.77887552370584Q1234.7363917949265 377.65872068839207 1234.7363917949265 395.4397289661375L1234.7363917949265 395.4397289661375L1234.7363917949265 444.6403118164114Q1234.7363917949265 449.00077706163506 1235.2693375471208 452.12577715404535L1235.2693375471208 452.12577715404535L1249.0532526834113 453.8699632521348Q1249.7557720840305 456.4862423992691 1249.0532526834113 460.507560347642L1249.0532526834113 460.507560347642Q1236.6743763483596 461.040506099836 1222.7208875636438 462.95426584635084L1222.7208875636438 462.95426584635084Q1221.315848762405 461.5492270451121 1220.9767014655542 459.4658936501719L1220.9767014655542 459.4658936501719L1220.1046084165096 447.42616461197093Q1205.6181738796 463.99593254382097 1187.8371656018544 463.99593254382097L1187.8371656018544 463.99593254382097Q1176.8391032611235 463.99593254382097 1170.6375526901388 457.7217075520824Q1164.4602269260718 451.4474825603439 1164.4602269260718 440.7885675164638L1164.4602269260718 440.7885675164638Q1164.4602269260718 424.7517453368078 1179.0193358837353 416.56376059855444Q1193.5784448413988 408.35155105338316 1218.166623863077 407.8428301081071ZM1335.7296118356908 375.7449609418772L1299.6346495280059 468.18682414061925L1295.9767036834014 468.18682414061925L1259.8575165687985 375.9145345903026L1248.883679034986 373.8312011953624Q1248.1811596343664 371.0211235928849 1248.883679034986 366.8544568030045L1248.883679034986 366.8544568030045Q1258.4767025744777 367.5327513967059 1269.6201137567164 367.5327513967059L1269.6201137567164 367.5327513967059Q1279.576509399977 367.5327513967059 1290.7441453891329 367.02403045142984L1290.7441453891329 367.02403045142984Q1291.785812086603 370.5124026476088 1290.7441453891329 373.8312011953624L1290.7441453891329 373.8312011953624L1279.7460830484024 375.9145345903026L1293.8691454815435 416.03081484636044Q1299.9737968248564 433.47267582725516 1301.8875565713715 441.3215132686578L1301.8875565713715 441.3215132686578L1302.2509286751401 441.3215132686578Q1306.4418202719385 426.32635778647193 1310.4389134133935 416.9029078954052L1310.4389134133935 416.9029078954052L1325.434068895579 375.2120151896832L1311.8439522146323 373.8312011953624Q1311.1414328140127 371.0211235928849 1311.8439522146323 366.8544568030045L1311.8439522146323 366.8544568030045Q1321.4369757541244 367.5327513967059 1330.1579062445717 367.5327513967059L1330.1579062445717 367.5327513967059Q1337.4737979337801 367.5327513967059 1348.8110075713616 367.02403045142984L1348.8110075713616 367.02403045142984Q1349.8526742688318 370.5124026476088 1348.8110075713616 373.8312011953624L1348.8110075713616 373.8312011953624L1335.7296118356908 375.7449609418772ZM1426.4272889363433 411.331202304286L1426.4272889363433 411.331202304286L1371.6550004949504 411.331202304286Q1370.104612852204 455.8079478055676 1398.3507377184865 455.8079478055676L1398.3507377184865 455.8079478055676Q1410.3904667566871 455.8079478055676 1422.9389167401641 445.14903276168747L1422.9389167401641 445.14903276168747Q1425.5551958872984 446.7236452113516 1426.9602346885372 450.5753895112992L1426.9602346885372 450.5753895112992Q1414.920505650336 463.99593254382097 1396.4369779719714 463.99593254382097L1396.4369779719714 463.99593254382097Q1353.873992217205 463.99593254382097 1353.873992217205 413.94748145142023L1353.873992217205 413.94748145142023Q1353.873992217205 390.2071706718691 1366.4224422006819 377.0531005154443Q1378.9951169910769 363.87480555210163 1395.7344585713522 363.87480555210163L1395.7344585713522 363.87480555210163Q1414.0484126012916 363.87480555210163 1422.0668236911197 376.61705399092193Q1430.0852347809478 389.3350776228244 1430.0852347809478 409.75658985462195L1430.0852347809478 409.75658985462195Q1428.3410486828584 411.13740384894277 1426.4272889363433 411.331202304286ZM1395.3953112745012 370.8515499444595L1395.3953112745012 370.8515499444595Q1386.3110086802853 370.8515499444595 1379.9398844608754 380.2749998355263Q1373.592985048383 389.69844972659297 1372.1879462471443 404.35445791192814L1372.1879462471443 404.35445791192814L1393.8206988248376 404.35445791192814Q1406.7325209120831 404.35445791192814 1412.3042265032022 402.77984546226406L1412.3042265032022 402.77984546226406Q1412.3042265032022 388.46298457377964 1407.9437612579782 379.66937966257854Q1403.583296012755 370.8515499444595 1395.3953112745012 370.8515499444595Z " fill="#fddc5c" transform="matrix(0.6118516005835718,0,0,0.6118516005835718,0,59.428023222911264)"/></g></svg>